<svg width="1000" height="1000" viewBox="0 0 1000 1000" fill="none" xmlns="http://www.w3.org/2000/svg">
<g clip-path="url(#clip0_203_6)">
<path d="M794.343 -3.52919H250.906C235.98 -3.54995 221.657 2.35401 211.081 12.886C200.505 23.4181 194.541 37.7171 194.5 52.6427V940.221C194.392 951.323 197.628 962.2 203.787 971.438C209.945 980.676 218.742 987.847 229.031 992.018C239.291 996.353 250.606 997.554 261.548 995.469C272.49 993.383 282.569 988.105 290.515 980.299L515.906 758.893C517.701 757.137 520.113 756.153 522.625 756.153C525.136 756.153 527.548 757.137 529.343 758.893L754.812 980.221C762.753 988.036 772.833 993.32 783.777 995.406C794.721 997.492 806.038 996.286 816.297 991.94C826.559 987.761 835.33 980.597 841.473 971.376C847.616 962.155 850.848 951.301 850.75 940.221V52.6427C850.708 37.7171 844.745 23.4181 834.169 12.886C823.593 2.35401 809.269 -3.54995 794.343 -3.52919ZM803.875 940.221C803.911 942.064 803.374 943.873 802.339 945.398C801.303 946.924 799.82 948.09 798.093 948.736C796.363 949.546 813.378 948.35 811.5 948C835.251 938.779 822.75 936.437 806.5 943L814 43.3458C803.41 33.033 537.407 43.3458 522.625 43.3458C507.843 43.3458 239.621 33.033 229.031 43.3458L232.5 935C231.171 936.369 232.875 947.65 231 948C232.799 948 244.643 952.797 242.911 952C241.184 951.353 243.946 946.924 242.911 945.398C241.875 943.873 241.338 942.064 241.375 940.221V52.6427C241.416 50.1492 242.441 47.7729 244.226 46.0316C246.011 44.2902 248.412 43.3249 250.906 43.3458H794.343C796.837 43.3249 812.215 41.6045 814 43.3458C815.785 45.0872 803.834 50.1492 803.875 52.6427V940.221Z" fill="white"/>
</g>
<defs>
<clipPath id="clip0_203_6">
<rect width="1000" height="1000" fill="white"/>
</clipPath>
</defs>
</svg>
