<svg width="1000" height="1000" viewBox="0 0 1000 1000" fill="none" xmlns="http://www.w3.org/2000/svg">
<g clip-path="url(#clip0_203_4)">
<path d="M771.718 4.69276e-05H228.281C213.355 -0.0207118 199.032 5.88324 188.456 16.4153C177.88 26.9473 171.916 41.2463 171.875 56.1719V943.75C171.767 954.852 175.003 965.73 181.162 974.967C187.32 984.205 196.117 991.376 206.406 995.547C216.666 999.883 227.981 1001.08 238.923 998.998C249.865 996.913 259.944 991.634 267.89 983.828L493.281 762.422C495.076 760.666 497.488 759.683 500 759.683C502.511 759.683 504.923 760.666 506.718 762.422L732.187 983.75C740.128 991.565 750.208 996.85 761.152 998.935C772.096 1001.02 783.413 999.815 793.672 995.469C803.934 991.291 812.705 984.127 818.848 974.905C824.991 965.684 828.223 954.83 828.125 943.75V56.1719C828.083 41.2463 822.12 26.9473 811.544 16.4153C800.968 5.88324 786.644 -0.0207118 771.718 4.69276e-05V4.69276e-05ZM781.25 943.75C781.286 945.593 780.749 947.402 779.714 948.928C778.678 950.453 777.195 951.619 775.468 952.266C773.738 953.075 771.798 953.321 769.92 952.971C768.043 952.621 766.322 951.691 765 950.313V950.313L539.531 728.984C528.941 718.672 514.743 712.901 499.961 712.901C485.179 712.901 470.981 718.672 460.39 728.984L235 950.313C233.671 951.681 231.951 952.604 230.076 952.954C228.201 953.303 226.264 953.063 224.531 952.266C222.804 951.619 221.321 950.453 220.286 948.928C219.25 947.402 218.713 945.593 218.75 943.75V56.1719C218.791 53.6784 219.816 51.3021 221.601 49.5608C223.386 47.8194 225.787 46.8541 228.281 46.875H771.718C774.212 46.8541 776.613 47.8194 778.399 49.5608C780.184 51.3021 781.209 53.6784 781.25 56.1719V943.75Z" fill="white"/>
</g>
<defs>
<clipPath id="clip0_203_4">
<rect width="1000" height="1000" fill="white"/>
</clipPath>
</defs>
</svg>
