<svg width="32" height="32" viewBox="0 0 32 32" fill="none" xmlns="http://www.w3.org/2000/svg">
<path d="M24.2566 11.1135C23.866 10.723 23.866 10.0899 24.2566 9.69933C24.6471 9.3088 25.2802 9.3088 25.6708 9.69933L31.3276 15.3562C31.7181 15.7467 31.7181 16.3799 31.3276 16.7704L25.6708 22.4272C25.2802 22.8178 24.6471 22.8178 24.2566 22.4272C23.866 22.0367 23.866 21.4036 24.2566 21.013L28.2774 16.9922H6.03803C5.48601 16.9922 5.03473 16.5445 5.03473 15.9922C5.03473 15.4361 5.48392 14.9922 6.03803 14.9922H28.1352L24.2566 11.1135Z" fill="#A5A5A5"/>
<path d="M18 31L19 30H1L2 31V24.0645V8.02148V1L1 2H19L18 1V10C18 10.5523 18.4477 11 19 11C19.5523 11 20 10.5523 20 10V1C20 0.447715 19.5523 0 19 0L1 0C0.447715 0 0 0.447715 0 1V8.02148L0 24.0645V31C0 31.5523 0.447715 32 1 32H19C19.5523 32 20 31.5523 20 31V22C20 21.4477 19.5523 21 19 21C18.4477 21 18 21.4477 18 22V31Z" fill="#A5A5A5"/>
</svg>
