<svg width="30" height="30" viewBox="0 0 30 30" fill="none" xmlns="http://www.w3.org/2000/svg">
<g clip-path="url(#clip0_103:2)">
<path d="M11.6616 0C5.22266 0 0.00177002 5.22089 0.00177002 11.6599C0.00177002 18.0989 5.22266 23.3198 11.6617 23.3198C14.1377 23.3198 16.434 22.5475 18.3215 21.232L18.3229 21.2306L26.9704 29.8782C27.1309 30.0386 27.386 30.0427 27.5507 29.8782L29.8813 27.5475C30.0418 27.3871 30.0335 27.121 29.8799 26.9673L21.2337 18.3211C22.5492 16.4322 23.3215 14.1359 23.3215 11.6599C23.3215 5.22089 18.1006 0 11.6616 0ZM11.6616 20.5763C6.73702 20.5763 2.74523 16.5845 2.74523 11.6599C2.74523 6.7353 6.73707 2.74351 11.6616 2.74351C16.5862 2.74351 20.578 6.7353 20.578 11.6599C20.578 16.5845 16.5862 20.5763 11.6616 20.5763Z" fill="#A5A5A5"/>
</g>
<defs>
<clipPath id="clip0_103:2">
<rect width="30" height="30" fill="white"/>
</clipPath>
</defs>
</svg>
