<svg width="30" height="30" viewBox="0 0 30 30" fill="none" xmlns="http://www.w3.org/2000/svg">
<path d="M15 5.625C8.45748 5.625 2.78666 9.43482 0 15C2.78666 20.5652 8.45748 24.375 15 24.375C21.5423 24.375 27.2132 20.5652 30 15C27.2133 9.43482 21.5423 5.625 15 5.625ZM22.396 10.5968C24.1586 11.721 25.6522 13.2269 26.7741 15C25.6522 16.7731 24.1585 18.279 22.396 19.4032C20.1813 20.8158 17.6238 21.5625 15 21.5625C12.3762 21.5625 9.81867 20.8158 7.604 19.4032C5.8415 18.2789 4.34795 16.773 3.22605 15C4.34789 13.2268 5.8415 11.721 7.604 10.5968C7.71879 10.5236 7.83475 10.4526 7.95141 10.3829C7.65967 11.1836 7.5 12.0476 7.5 12.9492C7.5 17.0913 10.8579 20.4492 15 20.4492C19.1421 20.4492 22.5 17.0913 22.5 12.9492C22.5 12.0476 22.3403 11.1836 22.0487 10.3829C22.1651 10.4525 22.2812 10.5236 22.396 10.5968ZM15 12.0117C15 13.565 13.7408 14.8242 12.1875 14.8242C10.6342 14.8242 9.375 13.565 9.375 12.0117C9.375 10.4584 10.6342 9.19922 12.1875 9.19922C13.7408 9.19922 15 10.4584 15 12.0117Z" fill="#A5A5A5"/>
</svg>
